<svg width="131" height="31" viewBox="0 0 131 31" fill="none" xmlns="http://www.w3.org/2000/svg">
<path d="M50.33 21.23V16.16C50.33 14.41 49.78 13.05 48.7 12.13C47.63 11.21 46.16 10.74 44.33 10.74C43.14 10.74 42.11 10.93 41.28 11.29C40.44 11.66 39.77 12.15 39.26 12.74C38.76 13.33 38.4 13.99 38.17 14.71L38.11 14.89L41.67 16.09L41.71 15.88C41.83 15.3 42.09 14.82 42.48 14.46C42.86 14.1 43.46 13.92 44.27 13.92C45.08 13.92 45.69 14.11 46.05 14.48C46.42 14.86 46.6 15.33 46.6 15.92V16.5H43.06C42.02 16.5 41.08 16.67 40.26 16.99C39.44 17.32 38.78 17.82 38.31 18.48C37.84 19.14 37.6 19.96 37.6 20.93C37.6 21.9 37.84 22.73 38.3 23.41C38.77 24.08 39.41 24.61 40.2 24.96C40.99 25.31 41.89 25.48 42.88 25.48C43.87 25.48 44.64 25.33 45.21 25.05C45.78 24.77 46.21 24.43 46.49 24.05C46.71 23.74 46.87 23.48 46.96 23.27H47.17C47.21 23.81 47.46 24.24 47.9 24.57C48.37 24.92 48.97 25.1 49.69 25.1H52.18V21.87H50.89C50.49 21.87 50.31 21.68 50.31 21.24L50.33 21.23ZM46.61 19.45V19.53C46.61 20.38 46.33 21.03 45.76 21.54C45.19 22.05 44.43 22.3 43.51 22.3C42.83 22.3 42.31 22.16 41.96 21.87C41.62 21.6 41.45 21.25 41.45 20.81C41.45 20.37 41.6 20.05 41.92 19.81C42.25 19.56 42.72 19.44 43.31 19.44H46.6L46.61 19.45Z" fill="white"/>
<path d="M62.89 12.68H62.69C62.5 12.37 62.24 12.07 61.91 11.79C61.54 11.48 61.07 11.23 60.49 11.03C59.91 10.83 59.2 10.73 58.36 10.73C57.24 10.73 56.18 11.01 55.22 11.56C54.26 12.12 53.48 12.94 52.9 14.01C52.32 15.07 52.03 16.38 52.03 17.88V18.32C52.03 19.83 52.32 21.13 52.9 22.19C53.48 23.26 54.27 24.08 55.23 24.64C56.2 25.19 57.25 25.47 58.35 25.47C59.62 25.47 60.61 25.25 61.29 24.81C61.92 24.4 62.41 23.94 62.73 23.44H62.93V25.08H66.71V5.53003H62.88V12.68H62.89ZM61.95 15.1C62.61 15.75 62.95 16.71 62.95 17.96V18.23C62.95 19.49 62.61 20.45 61.94 21.09C61.27 21.74 60.42 22.06 59.41 22.06C58.4 22.06 57.56 21.73 56.88 21.09C56.21 20.44 55.87 19.48 55.87 18.23V17.96C55.87 16.7 56.21 15.74 56.88 15.1C57.55 14.45 58.4 14.13 59.41 14.13C60.42 14.13 61.29 14.46 61.95 15.1Z" fill="white"/>
<path d="M78.72 11.65C77.71 11.04 76.51 10.73 75.14 10.73C73.77 10.73 72.53 11.03 71.48 11.62C70.43 12.21 69.6 13.06 69.02 14.13C68.44 15.21 68.15 16.48 68.15 17.93V18.26C68.15 19.71 68.45 20.99 69.04 22.07C69.63 23.15 70.47 23.99 71.53 24.58C72.59 25.17 73.82 25.47 75.2 25.47C76.46 25.47 77.53 25.27 78.35 24.86C79.17 24.46 79.84 23.96 80.34 23.39C80.83 22.82 81.21 22.29 81.47 21.81L81.56 21.64L78.39 19.98L78.31 20.16C78.08 20.65 77.75 21.1 77.31 21.5C76.89 21.88 76.21 22.08 75.3 22.08C74.39 22.08 73.63 21.8 73.01 21.25C72.43 20.74 72.12 20.1 72.04 19.31H81.92V17.94C81.92 16.53 81.64 15.27 81.08 14.19C80.52 13.11 79.72 12.26 78.71 11.65H78.72ZM73.02 14.79C73.53 14.35 74.23 14.12 75.12 14.12C76.01 14.12 76.66 14.35 77.18 14.79C77.65 15.19 77.93 15.7 78.03 16.35H72.12C72.26 15.71 72.57 15.19 73.03 14.79H73.02Z" fill="white"/>
<path d="M87.08 5.53003H83.25V25.1H87.08V5.53003Z" fill="white"/>
<path d="M93 11.12H89.17V25.09H93V11.12Z" fill="white"/>
<path d="M91.09 5.14001C90.42 5.14001 89.85 5.36001 89.38 5.80001C88.91 6.24001 88.68 6.82001 88.68 7.53001C88.68 8.24001 88.92 8.82001 89.38 9.26001C89.84 9.69001 90.42 9.92001 91.09 9.92001C91.76 9.92001 92.36 9.70001 92.81 9.26001C93.27 8.82001 93.5 8.24001 93.5 7.53001C93.5 6.82001 93.27 6.24001 92.81 5.80001C92.35 5.37001 91.78 5.14001 91.09 5.14001Z" fill="white"/>
<path d="M105.48 11.58C104.38 11.02 103.12 10.74 101.75 10.74C100.38 10.74 99.12 11.02 98.02 11.58C96.91 12.14 96.03 12.97 95.39 14.04C94.75 15.11 94.43 16.4 94.43 17.89V18.33C94.43 19.82 94.75 21.12 95.39 22.18C96.03 23.25 96.91 24.08 98.02 24.64C99.12 25.2 100.37 25.48 101.75 25.48C103.13 25.48 104.38 25.2 105.48 24.64C106.58 24.08 107.47 23.25 108.11 22.18C108.75 21.11 109.07 19.82 109.07 18.33V17.89C109.07 16.4 108.75 15.11 108.11 14.04C107.47 12.97 106.59 12.15 105.48 11.58ZM101.75 22.03C100.75 22.03 99.91 21.7 99.25 21.06C98.59 20.42 98.26 19.47 98.26 18.25V17.98C98.26 16.76 98.59 15.81 99.25 15.17C99.91 14.53 100.74 14.2 101.75 14.2C102.76 14.2 103.62 14.53 104.26 15.17C104.91 15.81 105.23 16.76 105.23 17.98V18.25C105.23 19.47 104.9 20.42 104.24 21.06C103.59 21.71 102.75 22.03 101.74 22.03H101.75Z" fill="white"/>
<path d="M129.91 13.15C129.48 12.4 128.9 11.83 128.19 11.46C127.48 11.09 126.68 10.91 125.81 10.91C124.73 10.91 123.89 11.11 123.29 11.52C122.73 11.9 122.29 12.37 121.97 12.94H121.7C121.38 12.35 120.92 11.87 120.35 11.5C119.74 11.11 118.92 10.91 117.92 10.91C116.99 10.91 116.23 11.09 115.66 11.45C115.13 11.78 114.73 12.17 114.47 12.61H114.28V11.13H110.5V25.1H114.33V16.88C114.33 16 114.53 15.32 114.93 14.85C115.33 14.39 115.87 14.16 116.61 14.16C117.25 14.16 117.75 14.33 118.09 14.67C118.43 15.01 118.61 15.53 118.61 16.22V25.1H122.44V16.88C122.44 16 122.64 15.32 123.04 14.85C123.43 14.39 123.98 14.16 124.72 14.16C125.36 14.16 125.86 14.33 126.2 14.67C126.54 15.01 126.72 15.53 126.72 16.22V25.1H130.55V15.97C130.55 14.85 130.33 13.9 129.91 13.15Z" fill="white"/>
<path d="M30.03 15.07C30.03 6.8 23.29 0.0599976 15.01 0.0599976V15.08H30.02L30.03 15.07Z" fill="#FA2869"/>
<path d="M7.51 15.08C11.6577 15.08 15.02 11.7177 15.02 7.57C15.02 3.42234 11.6577 0.0599976 7.51 0.0599976C3.36234 0.0599976 0 3.42234 0 7.57C0 11.7177 3.36234 15.08 7.51 15.08Z" fill="#FFCE1F"/>
<path d="M30.03 15.07H7.51C3.38 15.09 0.0299988 18.44 0.0299988 22.58C0.0299988 26.72 3.39 30.09 7.54 30.09H30.03V15.07Z" fill="#8C46FF"/>
<path d="M15.01 15.07C15.01 23.35 21.74 30.08 30.02 30.08V15.06H15.01V15.07Z" fill="#530ECB"/>
</svg>
