<?xml version="1.0" standalone="no"?>
<!DOCTYPE svg PUBLIC "-//W3C//DTD SVG 20010904//EN"
 "http://www.w3.org/TR/2001/REC-SVG-20010904/DTD/svg10.dtd">
<svg version="1.0" xmlns="http://www.w3.org/2000/svg"
 width="700.000000pt" height="700.000000pt" viewBox="0 0 700.000000 700.000000"
 preserveAspectRatio="xMidYMid meet">
<metadata>
Created by potrace 1.14, written by Peter Selinger 2001-2017
</metadata>
<g transform="translate(0.000000,700.000000) scale(0.100000,-0.100000)"
fill="#000000" stroke="none">
<path d="M2388 5746 c-1 -2 -41 -6 -88 -9 -201 -14 -369 -71 -545 -185 -91
-59 -251 -220 -310 -311 -134 -207 -187 -397 -181 -651 5 -237 60 -407 191
-600 118 -173 274 -305 462 -391 83 -37 263 -89 312 -89 20 0 43 -5 51 -10 12
-7 9 -9 -10 -8 -47 4 -172 -25 -278 -63 -135 -49 -288 -147 -396 -255 -250
-248 -364 -575 -325 -929 35 -313 216 -607 495 -802 83 -58 273 -139 369 -157
17 -4 41 -9 55 -11 75 -15 300 -17 1853 -19 1691 -1 1697 -1 1698 19 4 102 -1
2337 -5 2390 -6 65 -23 200 -30 235 -41 213 -92 370 -186 565 -215 452 -575
818 -1026 1043 -126 63 -342 144 -444 166 -203 45 -252 52 -422 62 l-128 7 0
-508 c0 -280 -2 -506 -4 -504 -2 2 -6 29 -9 59 -9 81 -51 219 -97 314 -171
357 -519 598 -909 632 -36 3 -71 7 -78 9 -6 2 -13 2 -15 1z m1112 -1746 l0
-500 -497 0 c-273 0 -494 2 -492 4 2 2 23 6 46 9 142 20 311 87 455 183 88 59
218 185 280 274 100 142 175 328 195 483 3 26 7 47 9 47 2 0 4 -225 4 -500z"/>
</g>
</svg>
